<?xml version="1.0" encoding="UTF-8" standalone="no"?>
<!DOCTYPE svg PUBLIC "-//W3C//DTD SVG 1.1//EN" "http://www.w3.org/Graphics/SVG/1.1/DTD/svg11.dtd">
<svg width="100%" height="100%" viewBox="0 0 128 128" version="1.1" xmlns="http://www.w3.org/2000/svg" xmlns:xlink="http://www.w3.org/1999/xlink" xml:space="preserve" style="fill-rule:evenodd;clip-rule:evenodd;stroke-linejoin:round;stroke-miterlimit:2;">
    <g transform="matrix(1,0,0,1,-2212,-372)">
        <g id="yon-icon" transform="matrix(0.695652,0,0,0.695652,-2285.391304,321.913043)">
            <rect x="6465" y="72" width="184" height="184" style="fill:none;"/>
            <g transform="matrix(1.642857,0,0,1.642857,-4313.785714,-401.142857)">
                <circle cx="6617" cy="344" r="56" style="fill:rgb(13,13,13);"/>
            </g>
            <g transform="matrix(0.262959,0,0,0.262959,6803.738591,-206.868082)">
                <g transform="matrix(-0.049949,0.998752,-0.998752,-0.049949,19848.525828,16151.506179)">
                    <path d="M-13714.113,21626.089L-13714.103,21626.083L-13714.132,21626.105L-13714.113,21626.089ZM-13714.113,21626.089C-13715.888,21627.159 -13717.565,21628.409 -13719.437,21629.298C-13719.735,21629.44 -13720.281,21629.7 -13721.045,21630.008C-13724.434,21634.549 -13727.626,21638.497 -13729.972,21639.971C-13733.612,21642.258 -13737.389,21635.584 -13741.326,21633.858C-13745.474,21632.038 -13752.17,21632.038 -13754.862,21629.055C-13756.506,21627.233 -13756.387,21623.894 -13756.492,21620.873L-13757.293,21620.007C-13758.367,21618.234 -13759.62,21616.559 -13760.512,21614.689C-13760.631,21614.44 -13760.832,21614.019 -13761.075,21613.442C-13763.041,21612.677 -13765.23,21612.137 -13766.652,21610.714C-13769.127,21608.24 -13772.647,21604.814 -13772.329,21601.108C-13771.892,21596.013 -13768.399,21583.859 -13764.032,21580.148C-13761.463,21577.964 -13757.698,21578.51 -13753.87,21578.969C-13752.713,21577.799 -13751.962,21577.333 -13749.611,21575.709C-13669.298,21520.211 -13576.637,21538.843 -13532.123,21582.047C-13492.924,21620.091 -13492.094,21675.613 -13546.018,21714.532C-13571.611,21733.003 -13598.082,21739.388 -13614.201,21742.184C-13698.4,21756.79 -13803.873,21717.296 -13839.185,21650.791C-13854.367,21622.197 -13851.443,21598.317 -13849.549,21587.993C-13845.326,21564.972 -13833.652,21548.269 -13828.483,21541.355C-13816.48,21525.3 -13802.789,21515.176 -13800.275,21513.264C-13786.514,21502.796 -13771.257,21494.071 -13756.779,21486.706C-13733.029,21474.626 -13686.72,21456.164 -13671.658,21449.87C-13613.284,21425.476 -13556.155,21397.066 -13536.462,21345.953C-13525.494,21317.485 -13528.85,21288.963 -13533.903,21267.761C-13533.962,21267.696 -13534.23,21266.566 -13534.315,21266.062C-13534.631,21264.205 -13534.846,21262.126 -13535.602,21259.569C-13535.732,21259.129 -13535.886,21258.596 -13536.053,21258.006C-13537.04,21254.532 -13538.51,21249.09 -13538.51,21249.09C-13538.51,21249.09 -13535.029,21253.726 -13534.615,21253.834C-13534.201,21253.942 -13535.718,21250.608 -13536.026,21249.737C-13536.161,21249.354 -13536.341,21248.992 -13536.463,21248.604C-13536.63,21248.073 -13536.889,21247.45 -13537.029,21246.547C-13537.074,21246.253 -13537.132,21245.912 -13537.164,21245.483C-13537.261,21244.185 -13537.963,21242.529 -13537.867,21242.441C-13537.74,21242.325 -13538.09,21239.676 -13537.91,21239.885C-13537.729,21240.094 -13537.261,21242.47 -13536.786,21243.697C-13535.963,21245.818 -13533.571,21252.007 -13532.414,21254.495C-13532.149,21255.064 -13531.949,21255.439 -13531.848,21255.528C-13531.723,21255.636 -13531.799,21255.161 -13531.977,21254.378C-13532.58,21251.72 -13534.361,21245.516 -13533.51,21246.557C-13532.86,21247.353 -13530.062,21251.942 -13527.899,21256.285C-13527.45,21257.186 -13527.028,21258.077 -13526.659,21258.921C-13526.23,21260.491 -13525.566,21263.088 -13525.484,21263.41L-13525.326,21264.033C-13499.528,21366.277 -13564.536,21415.657 -13635.858,21455.172C-13660.735,21468.955 -13691.635,21484.294 -13711.935,21495.236C-13712.418,21495.496 -13730.64,21505.138 -13748.689,21516.663C-13768.583,21529.367 -13779.288,21539.102 -13787.326,21547.381C-13791.416,21551.594 -13800.075,21560.835 -13806.975,21575.778C-13812.37,21587.463 -13824.044,21618.618 -13789.498,21653.268C-13752.671,21690.206 -13677.969,21714.727 -13615.854,21700.632C-13601.578,21697.393 -13590.765,21692.026 -13588.7,21691.001C-13585.329,21689.327 -13573.742,21683.581 -13563.018,21672.463C-13542.281,21650.966 -13550.727,21635.251 -13555.091,21628.576C-13569.11,21607.127 -13609.487,21589.059 -13655.209,21597.907C-13685.048,21603.68 -13705.16,21618.727 -13714.113,21626.089Z" style="fill:rgb(242,242,242);"/>
                </g>
                <g transform="matrix(1,0,0,1,-451.297165,-1282.528215)">
                    <path d="M-349.694,2806.638C-350.128,2806.366 -350.591,2806.069 -351.08,2805.745C-358.149,2801.063 -370.663,2790.784 -383.223,2770.683C-397.518,2747.803 -404.131,2725.671 -407.2,2714.865C-407.232,2714.754 -408.782,2709.071 -410.348,2701.808C-417.568,2668.333 -415.852,2645.861 -415.065,2637.247C-410.994,2592.73 -392.107,2567.4 -384.344,2557.944C-348.846,2514.706 -292.642,2505.854 -259.406,2537.296C-258.907,2537.768 -258.423,2538.329 -257.998,2538.87C-255.29,2541.144 -253.213,2543.501 -252.26,2545.897C-248.466,2555.432 -251.891,2569.908 -263.305,2579.197C-264.969,2580.551 -277.912,2589.574 -284.793,2590.314C-290.45,2590.923 -305.959,2601.13 -308.209,2601.588C-310.459,2602.046 -298.598,2594.559 -298.292,2593.061C-297.987,2591.564 -305.486,2593.533 -306.375,2592.605C-307.264,2591.677 -301.708,2587.735 -303.627,2587.492C-306.162,2587.171 -323.543,2595.024 -321.583,2590.679C-319.966,2587.095 -296.087,2580.066 -291.656,2569.016C-291.855,2568.78 -292.079,2568.505 -292.343,2568.176C-293.629,2566.573 -300.757,2557.301 -318.957,2558.611C-338.175,2559.994 -362.908,2573.829 -379.194,2603.993C-387.746,2619.833 -393.373,2639.264 -394.805,2663.792C-396.119,2686.319 -392.932,2705.049 -391.435,2714.2C-390.954,2717.142 -388.637,2730.884 -384.49,2744.119C-383.311,2747.883 -376.938,2769.786 -362.281,2787.543C-361.148,2788.915 -354.553,2796.905 -346.125,2802.113C-345.532,2802.48 -344.929,2802.833 -344.319,2803.169L-344.145,2803.264C-344.087,2803.374 -344.037,2803.502 -343.993,2803.642C-343.992,2803.643 -343.991,2803.643 -343.99,2803.644C-343.567,2803.975 -343.601,2804.005 -343.203,2804.364C-343.153,2804.4 -343.153,2804.397 -343.121,2804.449C-342.963,2804.609 -342.704,2804.695 -342.738,2804.784C-342.754,2804.827 -342.784,2804.86 -343.297,2804.632C-343.311,2804.638 -343.344,2804.586 -343.36,2804.661C-343.371,2804.717 -343.374,2804.713 -343.37,2804.773C-343.182,2804.9 -343.164,2804.865 -342.985,2805.002C-342.835,2805.118 -342.375,2805.14 -342.599,2805.442L-342.498,2805.485C-342.43,2805.51 -342.416,2805.49 -342.37,2805.567C-342.174,2805.715 -342.182,2805.726 -342.096,2805.757C-341.966,2805.854 -342.012,2805.893 -341.894,2806C-341.854,2806.045 -341.867,2806.054 -341.817,2806.088C-341.767,2806.121 -341.687,2806.205 -341.676,2806.216C-341.626,2806.254 -341.628,2806.251 -341.596,2806.302C-341.511,2806.353 -341.492,2806.382 -341.45,2806.417C-341.429,2806.434 -341.402,2806.453 -341.357,2806.478C-341.232,2806.546 -341.142,2806.535 -341.221,2806.716C-341.367,2807.05 -341.516,2806.683 -341.661,2806.77C-341.74,2806.818 -341.761,2806.809 -341.812,2806.796C-341.827,2806.792 -341.846,2806.788 -341.87,2806.784C-342.022,2806.822 -342.042,2806.785 -342.149,2806.901C-342.095,2806.919 -342.099,2806.919 -342.051,2806.947C-342.038,2806.948 -342.027,2806.949 -342.016,2806.951C-341.934,2806.963 -341.944,2806.989 -341.919,2807.023C-341.91,2807.03 -341.862,2807.069 -341.797,2807.106C-341.634,2807.198 -341.632,2807.199 -341.562,2807.369C-341.543,2807.382 -341.29,2807.5 -341.374,2807.587C-341.397,2807.61 -341.436,2807.651 -341.771,2807.489C-341.953,2807.578 -341.959,2807.603 -342.146,2807.532C-342.162,2807.532 -342.357,2807.532 -342.325,2807.612C-342.272,2807.74 -342.2,2807.807 -342.343,2807.815C-342.357,2807.816 -342.356,2807.813 -342.523,2807.786L-342.73,2807.802C-342.858,2807.83 -342.842,2807.854 -342.912,2807.961C-342.977,2808.061 -343.118,2807.972 -343.133,2807.962C-343.294,2808.102 -343.313,2808.011 -343.518,2807.957C-343.796,2808.028 -343.995,2807.894 -344.039,2807.871C-344.126,2807.871 -344.124,2807.873 -344.202,2807.835C-344.267,2807.803 -344.323,2807.781 -344.334,2807.777C-344.399,2807.78 -344.394,2807.774 -344.449,2807.747C-344.536,2807.745 -344.533,2807.755 -344.614,2807.725C-344.742,2807.656 -344.779,2807.659 -344.794,2807.66C-344.846,2807.665 -344.945,2807.549 -344.967,2807.665C-345.022,2807.953 -345.337,2807.452 -345.399,2807.585C-345.403,2807.592 -345.395,2807.59 -345.343,2807.666C-345.253,2807.75 -345.213,2807.732 -345.214,2807.857C-345.215,2807.941 -344.795,2808.12 -344.939,2808.167C-345.059,2808.206 -345.25,2808.079 -345.368,2808.015L-345.458,2808.069C-345.311,2808.188 -345.255,2808.155 -345.251,2808.287C-345.249,2808.35 -345.208,2808.374 -345.206,2808.377C-345.226,2808.395 -345.19,2808.538 -345.375,2808.441C-345.404,2808.426 -345.704,2808.268 -345.737,2808.266C-345.763,2808.265 -345.775,2808.313 -345.801,2808.311C-345.403,2808.625 -344.994,2808.725 -344.99,2808.729C-344.599,2809.02 -345.172,2808.917 -345.535,2808.688L-345.647,2808.651C-345.782,2808.542 -345.981,2808.454 -346.012,2808.44C-345.985,2808.538 -345.991,2808.54 -345.92,2808.617L-345.898,2808.602C-345.897,2808.606 -345.803,2808.673 -345.918,2808.669C-346.3,2808.557 -346.262,2808.48 -346.534,2808.376L-346.597,2808.336C-346.617,2808.323 -346.727,2808.251 -346.85,2808.177C-346.915,2808.139 -346.97,2808.113 -346.981,2808.108C-347.045,2808.12 -347.088,2808.134 -347.136,2808.137C-347.224,2808.143 -347.33,2808.115 -347.612,2807.988C-347.746,2807.927 -348.771,2807.308 -348.871,2807.248L-348.999,2807.17C-349.029,2807.151 -349.702,2806.653 -349.694,2806.638Z" style="fill:rgb(242,242,242);"/>
                </g>
            </g>
        </g>
    </g>
</svg>
